<svg width="80" height="80" viewBox="0 0 80 80" fill="none" xmlns="http://www.w3.org/2000/svg">
<circle cx="40" cy="40" r="40" fill="#32354B"/>
<g clip-path="url(#clip0_54_37)">
<path d="M51.259 32.206H44.995V30.183C44.9945 29.6044 44.7644 29.0497 44.3553 28.6407C43.9462 28.2316 43.3916 28.0015 42.813 28.001H36.798C36.2195 28.0015 35.6648 28.2316 35.2557 28.6407C34.8466 29.0497 34.6165 29.6044 34.616 30.183V32.206H28.344C27.7229 32.206 27.1272 32.4527 26.688 32.8919C26.2488 33.3311 26.002 33.9268 26.002 34.548V49.658C26.002 50.2791 26.2488 50.8748 26.688 51.314C27.1272 51.7532 27.7229 52 28.344 52H51.266C51.8872 52 52.4828 51.7532 52.9221 51.314C53.3613 50.8748 53.608 50.2791 53.608 49.658V34.547C53.608 33.9258 53.3613 33.3301 52.9221 32.8909C52.4828 32.4517 51.8872 32.205 51.266 32.205H51.259V32.206ZM36.483 30.182V30.18C36.483 30.01 36.621 29.872 36.791 29.872H42.817C42.987 29.872 43.124 30.01 43.124 30.179V32.205H36.484L36.483 30.182ZM39.802 48.773C38.9139 48.7919 38.0309 48.6333 37.2048 48.3065C36.3788 47.9797 35.6263 47.4912 34.9914 46.8698C34.3566 46.2484 33.8522 45.5065 33.5079 44.6876C33.1635 43.8687 32.9861 42.9893 32.986 42.101C32.986 41.2126 33.1632 40.3332 33.5075 39.5143C33.8517 38.6953 34.356 37.9534 34.9907 37.3318C35.6255 36.7103 36.3779 36.2218 37.2039 35.8949C38.0299 35.5679 38.9129 35.4092 39.801 35.428C41.5423 35.4704 43.198 36.1918 44.4146 37.4382C45.6312 38.6846 46.3124 40.3572 46.3126 42.099C46.3129 43.8408 45.6322 45.5136 44.416 46.7604C43.1997 48.0072 41.5442 48.7291 39.803 48.772L39.802 48.773Z" fill="white"/>
<path d="M41.446 37.374H38.144V40.442H35.07V43.754H38.148V46.822H41.45V43.75H44.528V40.438H41.446V37.374Z" fill="white"/>
</g>
<defs>
<clipPath id="clip0_54_37">
<rect width="28" height="24" fill="white" transform="translate(26 28)"/>
</clipPath>
</defs>
</svg>
