<svg width="269" height="66" viewBox="0 0 269 66" fill="none" xmlns="http://www.w3.org/2000/svg">
<path fill-rule="evenodd" clip-rule="evenodd" d="M13.7766 6.26434C11.4721 7.87468 9.38821 9.77862 7.57923 11.9219C14.9716 11.236 24.3633 12.3559 35.267 17.8044C46.9106 23.6224 56.2867 23.8191 62.8119 22.5612C62.2198 20.7697 61.4743 19.0479 60.5915 17.4111C53.1218 18.1984 43.5457 17.1563 32.3856 11.5799C25.2988 8.03879 19.0519 6.58008 13.7766 6.26434ZM56.228 11.2043C50.3292 4.61777 41.7568 0.472656 32.2155 0.472656C29.4136 0.472656 26.6949 0.830194 24.1031 1.50206C27.6133 2.45923 31.3423 3.85956 35.267 5.82069C43.4378 9.90345 50.492 11.218 56.228 11.2043ZM64.207 28.8496C56.3239 30.4052 45.4381 30.0857 32.3856 23.5636C20.183 17.4662 10.4708 17.543 3.92047 18.9977C3.58237 19.0727 3.25223 19.1516 2.93005 19.2337C2.07246 21.0976 1.3879 23.0577 0.896724 25.093C1.42133 24.953 1.96343 24.8199 2.52274 24.6956C10.4694 22.9308 21.6973 23.0074 35.267 29.788C47.4697 35.8855 57.1819 35.8087 63.7323 34.354C63.9567 34.3042 64.1779 34.2527 64.3953 34.1996C64.4192 33.692 64.4311 33.1812 64.4311 32.6677C64.4311 31.3759 64.355 30.1018 64.207 28.8496ZM63.3435 40.9939C55.5368 42.3578 44.968 41.8343 32.3856 35.5473C20.183 29.4498 10.4708 29.5266 3.92047 30.9814C2.4665 31.3041 1.15853 31.6974 0.00471958 32.1125C0.00157373 32.2972 0 32.4823 0 32.6677C0 50.4486 14.4234 64.8629 32.2155 64.8629C47.1266 64.8629 59.6717 54.7389 63.3435 40.9939Z" fill="#1373E1"/>
<path d="M75.38 28V14H77.8V19.88H83.32V14H85.74V28H83.32V22.08H77.8V28H75.38ZM88.505 28V14H97.425V16.18H90.925V19.86H96.865V22.04H90.925V25.82H97.525V28H88.505ZM98.6383 28L102.478 14H106.658L110.498 28H108.018L107.178 24.8H101.958L101.118 28H98.6383ZM102.518 22.6H106.618L104.738 15.5H104.398L102.518 22.6ZM112.275 28V14H114.695V25.82H121.255V28H112.275ZM124.559 28V16.18H120.379V14H131.139V16.18H126.959V28H124.559ZM133.017 28V14H135.437V19.88H140.957V14H143.377V28H140.957V22.08H135.437V28H133.017ZM75.38 54V40H77.8V45.88H83.32V40H85.74V54H83.32V48.08H77.8V54H75.38ZM93.865 54.28C92.1317 54.28 90.745 53.8 89.705 52.84C88.6783 51.8667 88.165 50.4733 88.165 48.66V45.34C88.165 43.5267 88.6783 42.14 89.705 41.18C90.745 40.2067 92.1317 39.72 93.865 39.72C95.6117 39.72 96.9983 40.2067 98.025 41.18C99.0517 42.14 99.565 43.5267 99.565 45.34V48.66C99.565 50.4733 99.0517 51.8667 98.025 52.84C96.9983 53.8 95.6117 54.28 93.865 54.28ZM93.865 52.12C94.905 52.12 95.7117 51.82 96.285 51.22C96.8717 50.6067 97.165 49.78 97.165 48.74V45.26C97.165 44.22 96.8717 43.4 96.285 42.8C95.7117 42.1867 94.905 41.88 93.865 41.88C92.8383 41.88 92.0317 42.1867 91.445 42.8C90.8717 43.4 90.585 44.22 90.585 45.26V48.74C90.585 49.78 90.8717 50.6067 91.445 51.22C92.0317 51.82 92.8383 52.12 93.865 52.12ZM106.802 54.28C105.735 54.28 104.788 54.0933 103.962 53.72C103.148 53.3333 102.508 52.78 102.042 52.06C101.575 51.34 101.342 50.46 101.342 49.42V48.9H103.722V49.42C103.722 50.34 104.002 51.0267 104.562 51.48C105.122 51.9333 105.868 52.16 106.802 52.16C107.748 52.16 108.462 51.9667 108.942 51.58C109.422 51.1933 109.662 50.6933 109.662 50.08C109.662 49.6667 109.548 49.3333 109.322 49.08C109.095 48.8133 108.762 48.6 108.322 48.44C107.895 48.28 107.375 48.1267 106.762 47.98L106.162 47.86C105.242 47.6467 104.442 47.38 103.762 47.06C103.095 46.7267 102.582 46.3 102.222 45.78C101.862 45.26 101.682 44.58 101.682 43.74C101.682 42.9 101.882 42.18 102.282 41.58C102.682 40.98 103.248 40.52 103.982 40.2C104.715 39.88 105.575 39.72 106.562 39.72C107.548 39.72 108.428 39.8867 109.202 40.22C109.975 40.5533 110.582 41.0533 111.022 41.72C111.475 42.3867 111.702 43.22 111.702 44.22V44.88H109.322V44.22C109.322 43.6467 109.208 43.1867 108.982 42.84C108.755 42.4933 108.435 42.24 108.022 42.08C107.608 41.92 107.122 41.84 106.562 41.84C105.735 41.84 105.108 42 104.682 42.32C104.255 42.64 104.042 43.0933 104.042 43.68C104.042 44.0533 104.135 44.3733 104.322 44.64C104.522 44.8933 104.808 45.1067 105.182 45.28C105.568 45.44 106.048 45.58 106.622 45.7L107.222 45.84C108.182 46.0533 109.022 46.3267 109.742 46.66C110.462 46.98 111.022 47.4067 111.422 47.94C111.835 48.4733 112.042 49.1667 112.042 50.02C112.042 50.86 111.822 51.6 111.382 52.24C110.955 52.88 110.348 53.38 109.562 53.74C108.788 54.1 107.868 54.28 106.802 54.28ZM114.15 54V40H119.81C120.69 40 121.463 40.1733 122.13 40.52C122.796 40.8667 123.323 41.36 123.71 42C124.096 42.6267 124.29 43.3733 124.29 44.24V44.52C124.29 45.3733 124.09 46.12 123.69 46.76C123.303 47.4 122.77 47.8933 122.09 48.24C121.423 48.5867 120.663 48.76 119.81 48.76H116.57V54H114.15ZM116.57 46.58H119.57C120.263 46.58 120.816 46.3933 121.23 46.02C121.656 45.6467 121.87 45.1333 121.87 44.48V44.28C121.87 43.6267 121.663 43.1133 121.25 42.74C120.836 42.3667 120.276 42.18 119.57 42.18H116.57V46.58ZM126.2 54V40H128.62V54H126.2ZM134.676 54V42.18H130.496V40H141.256V42.18H137.076V54H134.676ZM140.806 54L144.646 40H148.826L152.666 54H150.186L149.346 50.8H144.126L143.286 54H140.806ZM144.686 48.6H148.786L146.906 41.5H146.566L144.686 48.6ZM154.443 54V40H156.863V51.82H163.423V54H154.443Z" fill="#1373E1"/>
</svg>
