<svg width="65" height="65" viewBox="0 0 65 65" fill="none" xmlns="http://www.w3.org/2000/svg">
<path fill-rule="evenodd" clip-rule="evenodd" d="M13.7766 6.26434C11.4721 7.87468 9.38821 9.77862 7.57923 11.9219C14.9716 11.236 24.3633 12.3559 35.267 17.8044C46.9106 23.6224 56.2867 23.8191 62.8119 22.5612C62.2198 20.7697 61.4743 19.0479 60.5915 17.4111C53.1218 18.1984 43.5457 17.1563 32.3856 11.5799C25.2988 8.03879 19.0519 6.58008 13.7766 6.26434ZM56.228 11.2043C50.3292 4.61777 41.7568 0.472656 32.2155 0.472656C29.4136 0.472656 26.6949 0.830194 24.1031 1.50206C27.6133 2.45923 31.3423 3.85956 35.267 5.82069C43.4378 9.90345 50.492 11.218 56.228 11.2043ZM64.207 28.8496C56.3239 30.4052 45.4381 30.0857 32.3856 23.5636C20.183 17.4662 10.4708 17.543 3.92047 18.9977C3.58237 19.0727 3.25223 19.1516 2.93005 19.2337C2.07246 21.0976 1.3879 23.0577 0.896724 25.093C1.42133 24.953 1.96343 24.8199 2.52274 24.6956C10.4694 22.9308 21.6973 23.0074 35.267 29.788C47.4697 35.8855 57.1819 35.8087 63.7323 34.354C63.9567 34.3042 64.1779 34.2527 64.3953 34.1996C64.4192 33.692 64.4311 33.1812 64.4311 32.6677C64.4311 31.3759 64.355 30.1018 64.207 28.8496ZM63.3435 40.9939C55.5368 42.3578 44.968 41.8343 32.3856 35.5473C20.183 29.4498 10.4708 29.5266 3.92047 30.9814C2.4665 31.3041 1.15853 31.6974 0.00471958 32.1125C0.00157373 32.2972 0 32.4823 0 32.6677C0 50.4486 14.4234 64.8629 32.2155 64.8629C47.1266 64.8629 59.6717 54.7389 63.3435 40.9939Z" fill="#1373E1"/>
</svg>
