<svg width="55" height="55" viewBox="0 0 55 55" fill="none" xmlns="http://www.w3.org/2000/svg">
<circle cx="27.5" cy="27.5" r="25" fill="url(#paint0_linear_51_35)" stroke="white" stroke-width="5"/>
<path d="M21.375 35.5C21.2092 35.5 21.0503 35.4342 20.9331 35.3169C20.8158 35.1997 20.75 35.0408 20.75 34.875V21.125C20.75 21.0164 20.7783 20.9097 20.8322 20.8153C20.886 20.721 20.9635 20.6423 21.057 20.5871C21.1505 20.5318 21.2567 20.5019 21.3653 20.5002C21.4739 20.4985 21.5811 20.5252 21.6762 20.5775L34.1763 27.4525C34.2742 27.5065 34.356 27.5857 34.4129 27.682C34.4698 27.7783 34.4998 27.8881 34.4998 28C34.4998 28.1119 34.4698 28.2217 34.4129 28.318C34.356 28.4143 34.2742 28.4935 34.1763 28.5475L21.6762 35.4225C21.584 35.4733 21.4803 35.5 21.375 35.5Z" fill="white"/>
<defs>
<linearGradient id="paint0_linear_51_35" x1="23.45" y1="27.5" x2="5" y2="9.5" gradientUnits="userSpaceOnUse">
<stop stop-color="#1373E1"/>
<stop offset="1" stop-color="#1373E1" stop-opacity="0.71"/>
</linearGradient>
</defs>
</svg>
