<svg width="80" height="80" viewBox="0 0 80 80" fill="none" xmlns="http://www.w3.org/2000/svg">
<circle cx="40" cy="40" r="40" fill="#32354B"/>
<path d="M54.1667 35C54.1667 34.1667 53.3333 31.6667 50.8333 31.6667H32.8342C31.6867 31.6667 30.0925 33.1592 29.2492 35L26.6667 39.1667C25.4558 39.6659 25 41.1092 25 42.5V47.5C25 48.3841 25.3512 49.2319 25.9763 49.857C26.6014 50.4822 27.4493 50.8334 28.3333 50.8334H51.6667C52.5507 50.8334 53.3986 50.4822 54.0237 49.857C54.6488 49.2319 55 48.3841 55 47.5V40.8334C55 39.9775 54.1667 35 54.1667 35Z" fill="#CCD6DD"/>
<path d="M32.5 45.8333C31.1946 45.8338 29.9411 46.3452 29.0078 47.2579C28.0745 48.1707 27.5354 49.4124 27.5058 50.7175C27.7725 50.785 28.0458 50.8333 28.3333 50.8333H37.5C37.5 49.5072 36.9732 48.2355 36.0355 47.2978C35.0978 46.3601 33.8261 45.8333 32.5 45.8333ZM52.4942 50.7166C52.4646 49.4116 51.9254 48.17 50.9921 47.2574C50.0588 46.3448 48.8054 45.8336 47.5 45.8333C44.74 45.8333 42.5 48.0725 42.5 50.8333H51.6667C51.9542 50.8333 52.2283 50.785 52.4942 50.7166Z" fill="#E1E8ED"/>
<path d="M32.5 54.1667C34.341 54.1667 35.8333 52.6743 35.8333 50.8333C35.8333 48.9924 34.341 47.5 32.5 47.5C30.6591 47.5 29.1667 48.9924 29.1667 50.8333C29.1667 52.6743 30.6591 54.1667 32.5 54.1667Z" fill="#292F33"/>
<path d="M32.5 52.5C33.4205 52.5 34.1667 51.7538 34.1667 50.8334C34.1667 49.9129 33.4205 49.1667 32.5 49.1667C31.5795 49.1667 30.8333 49.9129 30.8333 50.8334C30.8333 51.7538 31.5795 52.5 32.5 52.5Z" fill="#99AAB5"/>
<path d="M47.5 54.1667C49.341 54.1667 50.8333 52.6743 50.8333 50.8333C50.8333 48.9924 49.341 47.5 47.5 47.5C45.6591 47.5 44.1667 48.9924 44.1667 50.8333C44.1667 52.6743 45.6591 54.1667 47.5 54.1667Z" fill="#292F33"/>
<path d="M47.5 52.5C48.4205 52.5 49.1667 51.7538 49.1667 50.8334C49.1667 49.9129 48.4205 49.1667 47.5 49.1667C46.5795 49.1667 45.8333 49.9129 45.8333 50.8334C45.8333 51.7538 46.5795 52.5 47.5 52.5Z" fill="#99AAB5"/>
<path d="M25 42.5H55V45H25V42.5ZM50.8333 35.8333H48.3333V33.3333H46.6667V35.8333H44.1667V37.5H46.6667V40H48.3333V37.5H50.8333V35.8333Z" fill="#DD2E44"/>
<path d="M31.6667 33.3333H35.8333V39.1666H28.3333L31.6667 33.3333Z" fill="#55ACEE"/>
<path d="M37.5 30.4167C37.5 30.7482 37.3683 31.0662 37.1339 31.3006C36.8995 31.535 36.5815 31.6667 36.25 31.6667H34.5833C34.2518 31.6667 33.9339 31.535 33.6994 31.3006C33.465 31.0662 33.3333 30.7482 33.3333 30.4167C33.3333 30.0852 33.465 29.7672 33.6994 29.5328C33.9339 29.2984 34.2518 29.1667 34.5833 29.1667H36.25C36.5815 29.1667 36.8995 29.2984 37.1339 29.5328C37.3683 29.7672 37.5 30.0852 37.5 30.4167Z" fill="#DD2E44"/>
<path d="M40 30.4167C40 30.7482 39.8683 31.0662 39.6339 31.3006C39.3995 31.535 39.0815 31.6667 38.75 31.6667H37.0833C36.7518 31.6667 36.4339 31.535 36.1994 31.3006C35.965 31.0662 35.8333 30.7482 35.8333 30.4167C35.8333 30.0852 35.965 29.7672 36.1994 29.5328C36.4339 29.2984 36.7518 29.1667 37.0833 29.1667H38.75C39.0815 29.1667 39.3995 29.2984 39.6339 29.5328C39.8683 29.7672 40 30.0852 40 30.4167Z" fill="#55ACEE"/>
</svg>
